<svg width="518" height="541" viewBox="0 0 518 541" fill="none" xmlns="http://www.w3.org/2000/svg">
<g filter="url(#filter0_d_2716_81)">
<path d="M354.166 302.886C356.219 303.7 357.224 306.025 356.41 308.079L302.92 442.984C288.754 478.712 248.306 496.192 212.578 482.026L286.049 296.727C295.828 298.476 305.783 294.175 311.209 285.854L354.166 302.886ZM265.925 267.906C264.179 277.678 268.477 287.624 276.788 293.051L241.431 382.225C240.616 384.279 238.291 385.283 236.238 384.469L147.541 349.301C86.2925 325.016 56.3279 255.678 80.6128 194.429L265.925 267.906ZM294.756 247.778C284.975 246.028 275.017 250.332 269.591 258.656L189.67 226.967C187.617 226.153 186.612 223.828 187.426 221.774L218.931 142.319C241.192 86.1746 304.752 58.7069 360.896 80.968L294.756 247.778ZM394.52 211.937C440.456 230.15 462.929 282.155 444.716 328.091L314.875 276.609C316.627 266.826 312.322 256.866 303.995 251.44L328.354 190.005C329.168 187.952 331.493 186.947 333.547 187.761L394.52 211.937Z" fill="url(#paint0_linear_2716_81)"/>
<g filter="url(#filter1_i_2716_81)">
<path d="M354.203 302.886C356.256 303.7 357.261 306.025 356.447 308.079L328.607 378.293C314.441 414.021 273.992 431.501 238.264 417.335L286.086 296.725C295.866 298.478 305.823 294.177 311.251 285.856L354.203 302.886ZM265.969 267.905C264.222 277.682 268.523 287.633 276.841 293.059L259.807 336.021C258.992 338.074 256.667 339.079 254.614 338.265L184.4 310.425C148.672 296.259 131.192 255.811 145.359 220.083L265.969 267.905ZM294.806 247.78C285.021 246.026 275.06 250.331 269.633 258.66L226.685 241.631C224.632 240.817 223.627 238.492 224.441 236.438L244.953 184.707C259.119 148.979 299.566 131.5 335.294 145.666L294.806 247.78ZM379.918 248.915C405.438 259.034 417.923 287.925 407.805 313.445L314.917 276.615C316.67 266.835 312.371 256.879 304.051 251.449L313.752 226.983C314.567 224.93 316.891 223.925 318.945 224.739L379.918 248.915Z" fill="white"/>
</g>
</g>
<defs>
<filter id="filter0_d_2716_81" x="-20" y="-9.65234" width="558.001" height="580.304" filterUnits="userSpaceOnUse" color-interpolation-filters="sRGB">
<feFlood flood-opacity="0" result="BackgroundImageFix"/>
<feColorMatrix in="SourceAlpha" type="matrix" values="0 0 0 0 0 0 0 0 0 0 0 0 0 0 0 0 0 0 127 0" result="hardAlpha"/>
<feOffset dy="10"/>
<feGaussianBlur stdDeviation="10"/>
<feComposite in2="hardAlpha" operator="out"/>
<feColorMatrix type="matrix" values="0 0 0 0 0 0 0 0 0 0 0 0 0 0 0 0 0 0 0.25 0"/>
<feBlend mode="normal" in2="BackgroundImageFix" result="effect1_dropShadow_2716_81"/>
<feBlend mode="normal" in="SourceGraphic" in2="effect1_dropShadow_2716_81" result="shape"/>
</filter>
<filter id="filter1_i_2716_81" x="140.44" y="140.748" width="270.877" height="281.505" filterUnits="userSpaceOnUse" color-interpolation-filters="sRGB">
<feFlood flood-opacity="0" result="BackgroundImageFix"/>
<feBlend mode="normal" in="SourceGraphic" in2="BackgroundImageFix" result="shape"/>
<feColorMatrix in="SourceAlpha" type="matrix" values="0 0 0 0 0 0 0 0 0 0 0 0 0 0 0 0 0 0 127 0" result="hardAlpha"/>
<feOffset/>
<feGaussianBlur stdDeviation="0.1"/>
<feComposite in2="hardAlpha" operator="arithmetic" k2="-1" k3="1"/>
<feColorMatrix type="matrix" values="0 0 0 0 0 0 0 0 0 0 0 0 0 0 0 0 0 0 0.25 0"/>
<feBlend mode="normal" in2="shape" result="effect1_innerShadow_2716_81"/>
</filter>
<linearGradient id="paint0_linear_2716_81" x1="284.408" y1="125.502" x2="271.352" y2="387.691" gradientUnits="userSpaceOnUse">
<stop stop-color="#38A6FF"/>
<stop offset="1" stop-color="#1E76EF"/>
</linearGradient>
</defs>
</svg>
